<mxfile host="app.diagrams.net" modified="2021-05-30T15:28:50.557Z" agent="5.0 (Macintosh; Intel Mac OS X 10_14_3) AppleWebKit/537.36 (KHTML, like Gecko) Chrome/90.0.4430.93 Safari/537.36" etag="diWcadyBi-ulIKAmd7Nz" version="14.7.0" type="github">
  <diagram id="XtqSGPoO22MZLJ__J1ce" name="Page-1">
    <mxGraphModel dx="1186" dy="691" grid="1" gridSize="10" guides="1" tooltips="1" connect="1" arrows="1" fold="1" page="1" pageScale="1" pageWidth="827" pageHeight="1169" math="0" shadow="0">
      <root>
        <mxCell id="0" />
        <mxCell id="1" parent="0" />
        <mxCell id="g-BjZ6uiKAOLLgh8AtG2-3" value="" style="shape=table;html=1;whiteSpace=wrap;startSize=0;container=1;collapsible=0;childLayout=tableLayout;fillColor=#99CCFF;" parent="1" vertex="1">
          <mxGeometry x="190" y="370" width="150" height="40" as="geometry" />
        </mxCell>
        <mxCell id="g-BjZ6uiKAOLLgh8AtG2-4" value="" style="shape=partialRectangle;html=1;whiteSpace=wrap;collapsible=0;dropTarget=0;pointerEvents=0;fillColor=none;top=0;left=0;bottom=0;right=0;points=[[0,0.5],[1,0.5]];portConstraint=eastwest;" parent="g-BjZ6uiKAOLLgh8AtG2-3" vertex="1">
          <mxGeometry width="150" height="40" as="geometry" />
        </mxCell>
        <mxCell id="g-BjZ6uiKAOLLgh8AtG2-5" value="" style="shape=partialRectangle;html=1;whiteSpace=wrap;connectable=0;fillColor=none;top=0;left=0;bottom=0;right=0;overflow=hidden;" parent="g-BjZ6uiKAOLLgh8AtG2-4" vertex="1">
          <mxGeometry width="50" height="40" as="geometry" />
        </mxCell>
        <mxCell id="g-BjZ6uiKAOLLgh8AtG2-6" value="" style="shape=partialRectangle;html=1;whiteSpace=wrap;connectable=0;fillColor=none;top=0;left=0;bottom=0;right=0;overflow=hidden;" parent="g-BjZ6uiKAOLLgh8AtG2-4" vertex="1">
          <mxGeometry x="50" width="50" height="40" as="geometry" />
        </mxCell>
        <mxCell id="g-BjZ6uiKAOLLgh8AtG2-7" value="" style="shape=partialRectangle;html=1;whiteSpace=wrap;connectable=0;fillColor=none;top=0;left=0;bottom=0;right=0;overflow=hidden;" parent="g-BjZ6uiKAOLLgh8AtG2-4" vertex="1">
          <mxGeometry x="100" width="50" height="40" as="geometry" />
        </mxCell>
        <mxCell id="g-BjZ6uiKAOLLgh8AtG2-16" value="" style="shape=table;html=1;whiteSpace=wrap;startSize=0;container=1;collapsible=0;childLayout=tableLayout;fillColor=#99CCFF;" parent="1" vertex="1">
          <mxGeometry x="40" y="370" width="150.0000000000001" height="40" as="geometry" />
        </mxCell>
        <mxCell id="g-BjZ6uiKAOLLgh8AtG2-17" value="" style="shape=partialRectangle;html=1;whiteSpace=wrap;collapsible=0;dropTarget=0;pointerEvents=0;fillColor=none;top=0;left=0;bottom=0;right=0;points=[[0,0.5],[1,0.5]];portConstraint=eastwest;" parent="g-BjZ6uiKAOLLgh8AtG2-16" vertex="1">
          <mxGeometry width="150.0000000000001" height="40" as="geometry" />
        </mxCell>
        <mxCell id="g-BjZ6uiKAOLLgh8AtG2-18" value="" style="shape=partialRectangle;html=1;whiteSpace=wrap;connectable=0;fillColor=none;top=0;left=0;bottom=0;right=0;overflow=hidden;" parent="g-BjZ6uiKAOLLgh8AtG2-17" vertex="1">
          <mxGeometry width="50" height="40" as="geometry" />
        </mxCell>
        <mxCell id="g-BjZ6uiKAOLLgh8AtG2-19" value="" style="shape=partialRectangle;html=1;whiteSpace=wrap;connectable=0;fillColor=none;top=0;left=0;bottom=0;right=0;overflow=hidden;" parent="g-BjZ6uiKAOLLgh8AtG2-17" vertex="1">
          <mxGeometry x="50" width="50" height="40" as="geometry" />
        </mxCell>
        <mxCell id="g-BjZ6uiKAOLLgh8AtG2-20" value="" style="shape=partialRectangle;html=1;whiteSpace=wrap;connectable=0;fillColor=none;top=0;left=0;bottom=0;right=0;overflow=hidden;" parent="g-BjZ6uiKAOLLgh8AtG2-17" vertex="1">
          <mxGeometry x="100" width="50" height="40" as="geometry" />
        </mxCell>
        <mxCell id="g-BjZ6uiKAOLLgh8AtG2-21" value="" style="shape=table;html=1;whiteSpace=wrap;startSize=0;container=1;collapsible=0;childLayout=tableLayout;fillColor=#FFCC99;" parent="1" vertex="1">
          <mxGeometry x="580" y="200.15" width="180" height="40" as="geometry" />
        </mxCell>
        <mxCell id="g-BjZ6uiKAOLLgh8AtG2-22" value="" style="shape=partialRectangle;html=1;whiteSpace=wrap;collapsible=0;dropTarget=0;pointerEvents=0;fillColor=none;top=0;left=0;bottom=0;right=0;points=[[0,0.5],[1,0.5]];portConstraint=eastwest;" parent="g-BjZ6uiKAOLLgh8AtG2-21" vertex="1">
          <mxGeometry width="180" height="40" as="geometry" />
        </mxCell>
        <mxCell id="g-BjZ6uiKAOLLgh8AtG2-23" value="" style="shape=partialRectangle;html=1;whiteSpace=wrap;connectable=0;fillColor=none;top=0;left=0;bottom=0;right=0;overflow=hidden;" parent="g-BjZ6uiKAOLLgh8AtG2-22" vertex="1">
          <mxGeometry width="60" height="40" as="geometry" />
        </mxCell>
        <mxCell id="g-BjZ6uiKAOLLgh8AtG2-24" value="" style="shape=partialRectangle;html=1;whiteSpace=wrap;connectable=0;fillColor=none;top=0;left=0;bottom=0;right=0;overflow=hidden;" parent="g-BjZ6uiKAOLLgh8AtG2-22" vertex="1">
          <mxGeometry x="60" width="60" height="40" as="geometry" />
        </mxCell>
        <mxCell id="g-BjZ6uiKAOLLgh8AtG2-25" value="" style="shape=partialRectangle;html=1;whiteSpace=wrap;connectable=0;fillColor=none;top=0;left=0;bottom=0;right=0;overflow=hidden;" parent="g-BjZ6uiKAOLLgh8AtG2-22" vertex="1">
          <mxGeometry x="120" width="60" height="40" as="geometry" />
        </mxCell>
        <mxCell id="g-BjZ6uiKAOLLgh8AtG2-26" value="" style="shape=table;html=1;whiteSpace=wrap;startSize=0;container=1;collapsible=0;childLayout=tableLayout;fillColor=#FFCC99;" parent="1" vertex="1">
          <mxGeometry x="220" y="200.15" width="180" height="40" as="geometry" />
        </mxCell>
        <mxCell id="g-BjZ6uiKAOLLgh8AtG2-27" value="" style="shape=partialRectangle;html=1;whiteSpace=wrap;collapsible=0;dropTarget=0;pointerEvents=0;fillColor=none;top=0;left=0;bottom=0;right=0;points=[[0,0.5],[1,0.5]];portConstraint=eastwest;" parent="g-BjZ6uiKAOLLgh8AtG2-26" vertex="1">
          <mxGeometry width="180" height="40" as="geometry" />
        </mxCell>
        <mxCell id="g-BjZ6uiKAOLLgh8AtG2-28" value="" style="shape=partialRectangle;html=1;whiteSpace=wrap;connectable=0;fillColor=none;top=0;left=0;bottom=0;right=0;overflow=hidden;" parent="g-BjZ6uiKAOLLgh8AtG2-27" vertex="1">
          <mxGeometry width="60" height="40" as="geometry" />
        </mxCell>
        <mxCell id="g-BjZ6uiKAOLLgh8AtG2-29" value="" style="shape=partialRectangle;html=1;whiteSpace=wrap;connectable=0;fillColor=none;top=0;left=0;bottom=0;right=0;overflow=hidden;" parent="g-BjZ6uiKAOLLgh8AtG2-27" vertex="1">
          <mxGeometry x="60" width="60" height="40" as="geometry" />
        </mxCell>
        <mxCell id="g-BjZ6uiKAOLLgh8AtG2-30" value="" style="shape=partialRectangle;html=1;whiteSpace=wrap;connectable=0;fillColor=none;top=0;left=0;bottom=0;right=0;overflow=hidden;" parent="g-BjZ6uiKAOLLgh8AtG2-27" vertex="1">
          <mxGeometry x="120" width="60" height="40" as="geometry" />
        </mxCell>
        <mxCell id="g-BjZ6uiKAOLLgh8AtG2-31" value="" style="shape=table;html=1;whiteSpace=wrap;startSize=0;container=1;collapsible=0;childLayout=tableLayout;fillColor=#FFCC99;" parent="1" vertex="1">
          <mxGeometry x="40" y="200.15" width="180" height="40" as="geometry" />
        </mxCell>
        <mxCell id="g-BjZ6uiKAOLLgh8AtG2-32" value="" style="shape=partialRectangle;html=1;whiteSpace=wrap;collapsible=0;dropTarget=0;pointerEvents=0;fillColor=none;top=0;left=0;bottom=0;right=0;points=[[0,0.5],[1,0.5]];portConstraint=eastwest;" parent="g-BjZ6uiKAOLLgh8AtG2-31" vertex="1">
          <mxGeometry width="180" height="40" as="geometry" />
        </mxCell>
        <mxCell id="g-BjZ6uiKAOLLgh8AtG2-33" value="" style="shape=partialRectangle;html=1;whiteSpace=wrap;connectable=0;fillColor=none;top=0;left=0;bottom=0;right=0;overflow=hidden;" parent="g-BjZ6uiKAOLLgh8AtG2-32" vertex="1">
          <mxGeometry width="60" height="40" as="geometry" />
        </mxCell>
        <mxCell id="g-BjZ6uiKAOLLgh8AtG2-34" value="" style="shape=partialRectangle;html=1;whiteSpace=wrap;connectable=0;fillColor=none;top=0;left=0;bottom=0;right=0;overflow=hidden;" parent="g-BjZ6uiKAOLLgh8AtG2-32" vertex="1">
          <mxGeometry x="60" width="60" height="40" as="geometry" />
        </mxCell>
        <mxCell id="g-BjZ6uiKAOLLgh8AtG2-35" value="" style="shape=partialRectangle;html=1;whiteSpace=wrap;connectable=0;fillColor=none;top=0;left=0;bottom=0;right=0;overflow=hidden;" parent="g-BjZ6uiKAOLLgh8AtG2-32" vertex="1">
          <mxGeometry x="120" width="60" height="40" as="geometry" />
        </mxCell>
        <mxCell id="g-BjZ6uiKAOLLgh8AtG2-36" value="" style="shape=table;html=1;whiteSpace=wrap;startSize=0;container=1;collapsible=0;childLayout=tableLayout;fillColor=#FFCC99;" parent="1" vertex="1">
          <mxGeometry x="400" y="200.15" width="180" height="40" as="geometry" />
        </mxCell>
        <mxCell id="g-BjZ6uiKAOLLgh8AtG2-37" value="" style="shape=partialRectangle;html=1;whiteSpace=wrap;collapsible=0;dropTarget=0;pointerEvents=0;fillColor=none;top=0;left=0;bottom=0;right=0;points=[[0,0.5],[1,0.5]];portConstraint=eastwest;" parent="g-BjZ6uiKAOLLgh8AtG2-36" vertex="1">
          <mxGeometry width="180" height="40" as="geometry" />
        </mxCell>
        <mxCell id="g-BjZ6uiKAOLLgh8AtG2-38" value="" style="shape=partialRectangle;html=1;whiteSpace=wrap;connectable=0;fillColor=none;top=0;left=0;bottom=0;right=0;overflow=hidden;" parent="g-BjZ6uiKAOLLgh8AtG2-37" vertex="1">
          <mxGeometry width="60" height="40" as="geometry" />
        </mxCell>
        <mxCell id="g-BjZ6uiKAOLLgh8AtG2-39" value="" style="shape=partialRectangle;html=1;whiteSpace=wrap;connectable=0;fillColor=none;top=0;left=0;bottom=0;right=0;overflow=hidden;" parent="g-BjZ6uiKAOLLgh8AtG2-37" vertex="1">
          <mxGeometry x="60" width="60" height="40" as="geometry" />
        </mxCell>
        <mxCell id="g-BjZ6uiKAOLLgh8AtG2-40" value="" style="shape=partialRectangle;html=1;whiteSpace=wrap;connectable=0;fillColor=none;top=0;left=0;bottom=0;right=0;overflow=hidden;" parent="g-BjZ6uiKAOLLgh8AtG2-37" vertex="1">
          <mxGeometry x="120" width="60" height="40" as="geometry" />
        </mxCell>
        <mxCell id="g-BjZ6uiKAOLLgh8AtG2-41" value="" style="shape=table;html=1;whiteSpace=wrap;startSize=0;container=1;collapsible=0;childLayout=tableLayout;fillColor=#99CCFF;" parent="1" vertex="1">
          <mxGeometry x="340" y="370" width="150" height="40" as="geometry" />
        </mxCell>
        <mxCell id="g-BjZ6uiKAOLLgh8AtG2-42" value="" style="shape=partialRectangle;html=1;whiteSpace=wrap;collapsible=0;dropTarget=0;pointerEvents=0;fillColor=none;top=0;left=0;bottom=0;right=0;points=[[0,0.5],[1,0.5]];portConstraint=eastwest;" parent="g-BjZ6uiKAOLLgh8AtG2-41" vertex="1">
          <mxGeometry width="150" height="40" as="geometry" />
        </mxCell>
        <mxCell id="g-BjZ6uiKAOLLgh8AtG2-43" value="" style="shape=partialRectangle;html=1;whiteSpace=wrap;connectable=0;fillColor=none;top=0;left=0;bottom=0;right=0;overflow=hidden;" parent="g-BjZ6uiKAOLLgh8AtG2-42" vertex="1">
          <mxGeometry width="50" height="40" as="geometry" />
        </mxCell>
        <mxCell id="g-BjZ6uiKAOLLgh8AtG2-44" value="" style="shape=partialRectangle;html=1;whiteSpace=wrap;connectable=0;fillColor=none;top=0;left=0;bottom=0;right=0;overflow=hidden;" parent="g-BjZ6uiKAOLLgh8AtG2-42" vertex="1">
          <mxGeometry x="50" width="50" height="40" as="geometry" />
        </mxCell>
        <mxCell id="g-BjZ6uiKAOLLgh8AtG2-45" value="" style="shape=partialRectangle;html=1;whiteSpace=wrap;connectable=0;fillColor=none;top=0;left=0;bottom=0;right=0;overflow=hidden;" parent="g-BjZ6uiKAOLLgh8AtG2-42" vertex="1">
          <mxGeometry x="100" width="50" height="40" as="geometry" />
        </mxCell>
        <mxCell id="g-BjZ6uiKAOLLgh8AtG2-51" value="" style="endArrow=classic;html=1;fillColor=#f8cecc;strokeColor=#3333FF;" parent="1" edge="1">
          <mxGeometry width="50" height="50" relative="1" as="geometry">
            <mxPoint x="40" y="290" as="sourcePoint" />
            <mxPoint x="40" y="241" as="targetPoint" />
          </mxGeometry>
        </mxCell>
        <mxCell id="g-BjZ6uiKAOLLgh8AtG2-53" value="rafTime" style="edgeLabel;html=1;align=center;verticalAlign=middle;resizable=0;points=[];" parent="g-BjZ6uiKAOLLgh8AtG2-51" vertex="1" connectable="0">
          <mxGeometry x="-0.2653" y="-1" relative="1" as="geometry">
            <mxPoint as="offset" />
          </mxGeometry>
        </mxCell>
        <mxCell id="g-BjZ6uiKAOLLgh8AtG2-52" value="拟定每帧：30s （每个方格宽度 30）&lt;br&gt;实际每帧：25s" style="text;html=1;strokeColor=none;fillColor=none;align=left;verticalAlign=middle;whiteSpace=wrap;rounded=0;" parent="1" vertex="1">
          <mxGeometry x="30" y="40" width="310" height="40" as="geometry" />
        </mxCell>
        <mxCell id="g-BjZ6uiKAOLLgh8AtG2-54" value="" style="endArrow=classic;html=1;entryX=0.328;entryY=1.021;entryDx=0;entryDy=0;entryPerimeter=0;" parent="1" edge="1" target="g-BjZ6uiKAOLLgh8AtG2-32">
          <mxGeometry width="50" height="50" relative="1" as="geometry">
            <mxPoint x="99" y="288" as="sourcePoint" />
            <mxPoint x="100" y="250" as="targetPoint" />
          </mxGeometry>
        </mxCell>
        <mxCell id="g-BjZ6uiKAOLLgh8AtG2-55" value="nextT" style="edgeLabel;html=1;align=center;verticalAlign=middle;resizable=0;points=[];" parent="g-BjZ6uiKAOLLgh8AtG2-54" vertex="1" connectable="0">
          <mxGeometry x="-0.2653" y="-1" relative="1" as="geometry">
            <mxPoint as="offset" />
          </mxGeometry>
        </mxCell>
        <mxCell id="g-BjZ6uiKAOLLgh8AtG2-56" value="" style="endArrow=classic;html=1;" parent="1" edge="1">
          <mxGeometry width="50" height="50" relative="1" as="geometry">
            <mxPoint x="100" y="140" as="sourcePoint" />
            <mxPoint x="100" y="199" as="targetPoint" />
          </mxGeometry>
        </mxCell>
        <mxCell id="g-BjZ6uiKAOLLgh8AtG2-57" value="preT" style="edgeLabel;html=1;align=center;verticalAlign=middle;resizable=0;points=[];" parent="g-BjZ6uiKAOLLgh8AtG2-56" vertex="1" connectable="0">
          <mxGeometry x="-0.2653" y="-1" relative="1" as="geometry">
            <mxPoint as="offset" />
          </mxGeometry>
        </mxCell>
        <mxCell id="g-BjZ6uiKAOLLgh8AtG2-60" value="" style="endArrow=classic;html=1;entryX=0.222;entryY=1.025;entryDx=0;entryDy=0;entryPerimeter=0;fillColor=#f8cecc;strokeColor=#3333FF;" parent="1" edge="1">
          <mxGeometry width="50" height="50" relative="1" as="geometry">
            <mxPoint x="40" y="460" as="sourcePoint" />
            <mxPoint x="40.00000000000003" y="410" as="targetPoint" />
          </mxGeometry>
        </mxCell>
        <mxCell id="g-BjZ6uiKAOLLgh8AtG2-61" value="rafTime" style="edgeLabel;html=1;align=center;verticalAlign=middle;resizable=0;points=[];" parent="g-BjZ6uiKAOLLgh8AtG2-60" vertex="1" connectable="0">
          <mxGeometry x="-0.2653" y="-1" relative="1" as="geometry">
            <mxPoint as="offset" />
          </mxGeometry>
        </mxCell>
        <mxCell id="g-BjZ6uiKAOLLgh8AtG2-64" value="preT: 35&lt;br&gt;nextT: 25" style="text;html=1;strokeColor=none;fillColor=none;align=left;verticalAlign=middle;whiteSpace=wrap;rounded=0;" parent="1" vertex="1">
          <mxGeometry x="210" y="110" width="310" height="40" as="geometry" />
        </mxCell>
        <mxCell id="g-BjZ6uiKAOLLgh8AtG2-77" value="" style="endArrow=classic;html=1;fillColor=#e51400;strokeColor=#B20000;" parent="1" edge="1">
          <mxGeometry width="50" height="50" relative="1" as="geometry">
            <mxPoint x="100" y="352" as="sourcePoint" />
            <mxPoint x="100.34" y="300" as="targetPoint" />
            <Array as="points">
              <mxPoint x="100" y="322" />
            </Array>
          </mxGeometry>
        </mxCell>
        <mxCell id="g-BjZ6uiKAOLLgh8AtG2-79" value="fdlT" style="edgeLabel;html=1;align=center;verticalAlign=middle;resizable=0;points=[];" parent="g-BjZ6uiKAOLLgh8AtG2-77" vertex="1" connectable="0">
          <mxGeometry x="-0.0993" y="-3" relative="1" as="geometry">
            <mxPoint as="offset" />
          </mxGeometry>
        </mxCell>
        <mxCell id="g-BjZ6uiKAOLLgh8AtG2-80" value="" style="endArrow=classic;html=1;entryX=0.222;entryY=1.025;entryDx=0;entryDy=0;entryPerimeter=0;fillColor=#f8cecc;strokeColor=#3333FF;" parent="1" edge="1">
          <mxGeometry width="50" height="50" relative="1" as="geometry">
            <mxPoint x="89.99999999999989" y="459.9999999999999" as="sourcePoint" />
            <mxPoint x="89.99999999999989" y="409.9999999999999" as="targetPoint" />
          </mxGeometry>
        </mxCell>
        <mxCell id="g-BjZ6uiKAOLLgh8AtG2-81" value="rafTime" style="edgeLabel;html=1;align=center;verticalAlign=middle;resizable=0;points=[];" parent="g-BjZ6uiKAOLLgh8AtG2-80" vertex="1" connectable="0">
          <mxGeometry x="-0.2653" y="-1" relative="1" as="geometry">
            <mxPoint as="offset" />
          </mxGeometry>
        </mxCell>
        <mxCell id="nYA113lYnd1zeGs2nNv6-1" value="" style="shape=table;html=1;whiteSpace=wrap;startSize=0;container=1;collapsible=0;childLayout=tableLayout;fillColor=#FFCC99;" vertex="1" parent="1">
          <mxGeometry x="580" y="760.15" width="180" height="40" as="geometry" />
        </mxCell>
        <mxCell id="nYA113lYnd1zeGs2nNv6-2" value="" style="shape=partialRectangle;html=1;whiteSpace=wrap;collapsible=0;dropTarget=0;pointerEvents=0;fillColor=none;top=0;left=0;bottom=0;right=0;points=[[0,0.5],[1,0.5]];portConstraint=eastwest;" vertex="1" parent="nYA113lYnd1zeGs2nNv6-1">
          <mxGeometry width="180" height="40" as="geometry" />
        </mxCell>
        <mxCell id="nYA113lYnd1zeGs2nNv6-3" value="" style="shape=partialRectangle;html=1;whiteSpace=wrap;connectable=0;fillColor=none;top=0;left=0;bottom=0;right=0;overflow=hidden;" vertex="1" parent="nYA113lYnd1zeGs2nNv6-2">
          <mxGeometry width="60" height="40" as="geometry" />
        </mxCell>
        <mxCell id="nYA113lYnd1zeGs2nNv6-4" value="" style="shape=partialRectangle;html=1;whiteSpace=wrap;connectable=0;fillColor=none;top=0;left=0;bottom=0;right=0;overflow=hidden;" vertex="1" parent="nYA113lYnd1zeGs2nNv6-2">
          <mxGeometry x="60" width="60" height="40" as="geometry" />
        </mxCell>
        <mxCell id="nYA113lYnd1zeGs2nNv6-5" value="" style="shape=partialRectangle;html=1;whiteSpace=wrap;connectable=0;fillColor=none;top=0;left=0;bottom=0;right=0;overflow=hidden;" vertex="1" parent="nYA113lYnd1zeGs2nNv6-2">
          <mxGeometry x="120" width="60" height="40" as="geometry" />
        </mxCell>
        <mxCell id="nYA113lYnd1zeGs2nNv6-6" value="" style="shape=table;html=1;whiteSpace=wrap;startSize=0;container=1;collapsible=0;childLayout=tableLayout;fillColor=#FFCC99;" vertex="1" parent="1">
          <mxGeometry x="220" y="760.15" width="180" height="40" as="geometry" />
        </mxCell>
        <mxCell id="nYA113lYnd1zeGs2nNv6-7" value="" style="shape=partialRectangle;html=1;whiteSpace=wrap;collapsible=0;dropTarget=0;pointerEvents=0;fillColor=none;top=0;left=0;bottom=0;right=0;points=[[0,0.5],[1,0.5]];portConstraint=eastwest;" vertex="1" parent="nYA113lYnd1zeGs2nNv6-6">
          <mxGeometry width="180" height="40" as="geometry" />
        </mxCell>
        <mxCell id="nYA113lYnd1zeGs2nNv6-8" value="" style="shape=partialRectangle;html=1;whiteSpace=wrap;connectable=0;fillColor=none;top=0;left=0;bottom=0;right=0;overflow=hidden;" vertex="1" parent="nYA113lYnd1zeGs2nNv6-7">
          <mxGeometry width="60" height="40" as="geometry" />
        </mxCell>
        <mxCell id="nYA113lYnd1zeGs2nNv6-9" value="" style="shape=partialRectangle;html=1;whiteSpace=wrap;connectable=0;fillColor=none;top=0;left=0;bottom=0;right=0;overflow=hidden;" vertex="1" parent="nYA113lYnd1zeGs2nNv6-7">
          <mxGeometry x="60" width="60" height="40" as="geometry" />
        </mxCell>
        <mxCell id="nYA113lYnd1zeGs2nNv6-10" value="" style="shape=partialRectangle;html=1;whiteSpace=wrap;connectable=0;fillColor=none;top=0;left=0;bottom=0;right=0;overflow=hidden;" vertex="1" parent="nYA113lYnd1zeGs2nNv6-7">
          <mxGeometry x="120" width="60" height="40" as="geometry" />
        </mxCell>
        <mxCell id="nYA113lYnd1zeGs2nNv6-11" value="" style="shape=table;html=1;whiteSpace=wrap;startSize=0;container=1;collapsible=0;childLayout=tableLayout;fillColor=#FFCC99;" vertex="1" parent="1">
          <mxGeometry x="40" y="760.15" width="180" height="40" as="geometry" />
        </mxCell>
        <mxCell id="nYA113lYnd1zeGs2nNv6-12" value="" style="shape=partialRectangle;html=1;whiteSpace=wrap;collapsible=0;dropTarget=0;pointerEvents=0;fillColor=none;top=0;left=0;bottom=0;right=0;points=[[0,0.5],[1,0.5]];portConstraint=eastwest;" vertex="1" parent="nYA113lYnd1zeGs2nNv6-11">
          <mxGeometry width="180" height="40" as="geometry" />
        </mxCell>
        <mxCell id="nYA113lYnd1zeGs2nNv6-13" value="" style="shape=partialRectangle;html=1;whiteSpace=wrap;connectable=0;fillColor=none;top=0;left=0;bottom=0;right=0;overflow=hidden;" vertex="1" parent="nYA113lYnd1zeGs2nNv6-12">
          <mxGeometry width="60" height="40" as="geometry" />
        </mxCell>
        <mxCell id="nYA113lYnd1zeGs2nNv6-14" value="" style="shape=partialRectangle;html=1;whiteSpace=wrap;connectable=0;fillColor=none;top=0;left=0;bottom=0;right=0;overflow=hidden;" vertex="1" parent="nYA113lYnd1zeGs2nNv6-12">
          <mxGeometry x="60" width="60" height="40" as="geometry" />
        </mxCell>
        <mxCell id="nYA113lYnd1zeGs2nNv6-15" value="" style="shape=partialRectangle;html=1;whiteSpace=wrap;connectable=0;fillColor=none;top=0;left=0;bottom=0;right=0;overflow=hidden;" vertex="1" parent="nYA113lYnd1zeGs2nNv6-12">
          <mxGeometry x="120" width="60" height="40" as="geometry" />
        </mxCell>
        <mxCell id="nYA113lYnd1zeGs2nNv6-16" value="" style="shape=table;html=1;whiteSpace=wrap;startSize=0;container=1;collapsible=0;childLayout=tableLayout;fillColor=#FFCC99;" vertex="1" parent="1">
          <mxGeometry x="400" y="760.15" width="180" height="40" as="geometry" />
        </mxCell>
        <mxCell id="nYA113lYnd1zeGs2nNv6-17" value="" style="shape=partialRectangle;html=1;whiteSpace=wrap;collapsible=0;dropTarget=0;pointerEvents=0;fillColor=none;top=0;left=0;bottom=0;right=0;points=[[0,0.5],[1,0.5]];portConstraint=eastwest;" vertex="1" parent="nYA113lYnd1zeGs2nNv6-16">
          <mxGeometry width="180" height="40" as="geometry" />
        </mxCell>
        <mxCell id="nYA113lYnd1zeGs2nNv6-18" value="" style="shape=partialRectangle;html=1;whiteSpace=wrap;connectable=0;fillColor=none;top=0;left=0;bottom=0;right=0;overflow=hidden;" vertex="1" parent="nYA113lYnd1zeGs2nNv6-17">
          <mxGeometry width="60" height="40" as="geometry" />
        </mxCell>
        <mxCell id="nYA113lYnd1zeGs2nNv6-19" value="" style="shape=partialRectangle;html=1;whiteSpace=wrap;connectable=0;fillColor=none;top=0;left=0;bottom=0;right=0;overflow=hidden;" vertex="1" parent="nYA113lYnd1zeGs2nNv6-17">
          <mxGeometry x="60" width="60" height="40" as="geometry" />
        </mxCell>
        <mxCell id="nYA113lYnd1zeGs2nNv6-20" value="" style="shape=partialRectangle;html=1;whiteSpace=wrap;connectable=0;fillColor=none;top=0;left=0;bottom=0;right=0;overflow=hidden;" vertex="1" parent="nYA113lYnd1zeGs2nNv6-17">
          <mxGeometry x="120" width="60" height="40" as="geometry" />
        </mxCell>
        <mxCell id="nYA113lYnd1zeGs2nNv6-21" value="" style="endArrow=classic;html=1;entryX=0.222;entryY=1.025;entryDx=0;entryDy=0;entryPerimeter=0;fillColor=#f8cecc;strokeColor=#3333FF;" edge="1" parent="1" target="nYA113lYnd1zeGs2nNv6-12">
          <mxGeometry width="50" height="50" relative="1" as="geometry">
            <mxPoint x="80" y="838" as="sourcePoint" />
            <mxPoint x="90" y="810.15" as="targetPoint" />
          </mxGeometry>
        </mxCell>
        <mxCell id="nYA113lYnd1zeGs2nNv6-22" value="rafTime" style="edgeLabel;html=1;align=center;verticalAlign=middle;resizable=0;points=[];" vertex="1" connectable="0" parent="nYA113lYnd1zeGs2nNv6-21">
          <mxGeometry x="-0.2653" y="-1" relative="1" as="geometry">
            <mxPoint as="offset" />
          </mxGeometry>
        </mxCell>
        <mxCell id="nYA113lYnd1zeGs2nNv6-23" value="" style="endArrow=classic;html=1;entryX=0.222;entryY=1.025;entryDx=0;entryDy=0;entryPerimeter=0;" edge="1" parent="1">
          <mxGeometry width="50" height="50" relative="1" as="geometry">
            <mxPoint x="140" y="848" as="sourcePoint" />
            <mxPoint x="140" y="800.15" as="targetPoint" />
          </mxGeometry>
        </mxCell>
        <mxCell id="nYA113lYnd1zeGs2nNv6-24" value="nextT" style="edgeLabel;html=1;align=center;verticalAlign=middle;resizable=0;points=[];" vertex="1" connectable="0" parent="nYA113lYnd1zeGs2nNv6-23">
          <mxGeometry x="-0.2653" y="-1" relative="1" as="geometry">
            <mxPoint as="offset" />
          </mxGeometry>
        </mxCell>
        <mxCell id="nYA113lYnd1zeGs2nNv6-25" value="" style="endArrow=classic;html=1;entryX=0.55;entryY=-0.025;entryDx=0;entryDy=0;entryPerimeter=0;" edge="1" parent="1" target="nYA113lYnd1zeGs2nNv6-12">
          <mxGeometry width="50" height="50" relative="1" as="geometry">
            <mxPoint x="139" y="718" as="sourcePoint" />
            <mxPoint x="180" y="638" as="targetPoint" />
          </mxGeometry>
        </mxCell>
        <mxCell id="nYA113lYnd1zeGs2nNv6-26" value="preT" style="edgeLabel;html=1;align=center;verticalAlign=middle;resizable=0;points=[];" vertex="1" connectable="0" parent="nYA113lYnd1zeGs2nNv6-25">
          <mxGeometry x="-0.2653" y="-1" relative="1" as="geometry">
            <mxPoint as="offset" />
          </mxGeometry>
        </mxCell>
        <mxCell id="nYA113lYnd1zeGs2nNv6-27" value="" style="endArrow=classic;html=1;fillColor=#e51400;strokeColor=#B20000;" edge="1" parent="1">
          <mxGeometry width="50" height="50" relative="1" as="geometry">
            <mxPoint x="140" y="898" as="sourcePoint" />
            <mxPoint x="140.33999999999992" y="858" as="targetPoint" />
          </mxGeometry>
        </mxCell>
        <mxCell id="nYA113lYnd1zeGs2nNv6-28" value="fdlT" style="edgeLabel;html=1;align=center;verticalAlign=middle;resizable=0;points=[];" vertex="1" connectable="0" parent="nYA113lYnd1zeGs2nNv6-27">
          <mxGeometry x="-0.0993" y="-3" relative="1" as="geometry">
            <mxPoint as="offset" />
          </mxGeometry>
        </mxCell>
        <mxCell id="nYA113lYnd1zeGs2nNv6-34" value="" style="shape=table;html=1;whiteSpace=wrap;startSize=0;container=1;collapsible=0;childLayout=tableLayout;fillColor=#99CCFF;" vertex="1" parent="1">
          <mxGeometry x="40" y="960" width="210" height="40" as="geometry" />
        </mxCell>
        <mxCell id="nYA113lYnd1zeGs2nNv6-35" value="" style="shape=partialRectangle;html=1;whiteSpace=wrap;collapsible=0;dropTarget=0;pointerEvents=0;fillColor=none;top=0;left=0;bottom=0;right=0;points=[[0,0.5],[1,0.5]];portConstraint=eastwest;" vertex="1" parent="nYA113lYnd1zeGs2nNv6-34">
          <mxGeometry width="210" height="40" as="geometry" />
        </mxCell>
        <mxCell id="nYA113lYnd1zeGs2nNv6-36" value="" style="shape=partialRectangle;html=1;whiteSpace=wrap;connectable=0;fillColor=none;top=0;left=0;bottom=0;right=0;overflow=hidden;" vertex="1" parent="nYA113lYnd1zeGs2nNv6-35">
          <mxGeometry width="70" height="40" as="geometry" />
        </mxCell>
        <mxCell id="nYA113lYnd1zeGs2nNv6-37" value="" style="shape=partialRectangle;html=1;whiteSpace=wrap;connectable=0;fillColor=none;top=0;left=0;bottom=0;right=0;overflow=hidden;" vertex="1" parent="nYA113lYnd1zeGs2nNv6-35">
          <mxGeometry x="70" width="70" height="40" as="geometry" />
        </mxCell>
        <mxCell id="nYA113lYnd1zeGs2nNv6-38" value="" style="shape=partialRectangle;html=1;whiteSpace=wrap;connectable=0;fillColor=none;top=0;left=0;bottom=0;right=0;overflow=hidden;" vertex="1" parent="nYA113lYnd1zeGs2nNv6-35">
          <mxGeometry x="140" width="70" height="40" as="geometry" />
        </mxCell>
        <mxCell id="nYA113lYnd1zeGs2nNv6-44" value="" style="endArrow=classic;html=1;entryX=0.222;entryY=1.025;entryDx=0;entryDy=0;entryPerimeter=0;fillColor=#f8cecc;strokeColor=#3333FF;" edge="1" parent="1">
          <mxGeometry width="50" height="50" relative="1" as="geometry">
            <mxPoint x="80" y="1050" as="sourcePoint" />
            <mxPoint x="80" y="1000" as="targetPoint" />
          </mxGeometry>
        </mxCell>
        <mxCell id="nYA113lYnd1zeGs2nNv6-45" value="rafTime" style="edgeLabel;html=1;align=center;verticalAlign=middle;resizable=0;points=[];" vertex="1" connectable="0" parent="nYA113lYnd1zeGs2nNv6-44">
          <mxGeometry x="-0.2653" y="-1" relative="1" as="geometry">
            <mxPoint as="offset" />
          </mxGeometry>
        </mxCell>
        <mxCell id="nYA113lYnd1zeGs2nNv6-46" value="" style="endArrow=classic;html=1;entryX=0.529;entryY=1.05;entryDx=0;entryDy=0;entryPerimeter=0;fillColor=#f8cecc;strokeColor=#3333FF;" edge="1" parent="1" target="nYA113lYnd1zeGs2nNv6-35">
          <mxGeometry width="50" height="50" relative="1" as="geometry">
            <mxPoint x="151" y="1050" as="sourcePoint" />
            <mxPoint x="129.65999999999985" y="1000" as="targetPoint" />
          </mxGeometry>
        </mxCell>
        <mxCell id="nYA113lYnd1zeGs2nNv6-47" value="rafTime" style="edgeLabel;html=1;align=center;verticalAlign=middle;resizable=0;points=[];" vertex="1" connectable="0" parent="nYA113lYnd1zeGs2nNv6-46">
          <mxGeometry x="-0.2653" y="-1" relative="1" as="geometry">
            <mxPoint as="offset" />
          </mxGeometry>
        </mxCell>
        <mxCell id="nYA113lYnd1zeGs2nNv6-48" value="拟定每帧：30s （每个方格宽度 30）&lt;br&gt;实际每帧：35s" style="text;html=1;strokeColor=none;fillColor=none;align=left;verticalAlign=middle;whiteSpace=wrap;rounded=0;" vertex="1" parent="1">
          <mxGeometry x="40" y="600" width="310" height="40" as="geometry" />
        </mxCell>
        <mxCell id="nYA113lYnd1zeGs2nNv6-49" value="" style="endArrow=classic;html=1;entryX=0.222;entryY=1.025;entryDx=0;entryDy=0;entryPerimeter=0;" edge="1" parent="1">
          <mxGeometry width="50" height="50" relative="1" as="geometry">
            <mxPoint x="190" y="288" as="sourcePoint" />
            <mxPoint x="190" y="240.14999999999998" as="targetPoint" />
          </mxGeometry>
        </mxCell>
        <mxCell id="nYA113lYnd1zeGs2nNv6-50" value="nextT" style="edgeLabel;html=1;align=center;verticalAlign=middle;resizable=0;points=[];" vertex="1" connectable="0" parent="nYA113lYnd1zeGs2nNv6-49">
          <mxGeometry x="-0.2653" y="-1" relative="1" as="geometry">
            <mxPoint as="offset" />
          </mxGeometry>
        </mxCell>
      </root>
    </mxGraphModel>
  </diagram>
</mxfile>
